# xmcd
#
# Track frame offsets:
#   150
#   13916
#   26003
#   38437
#   50119
#   60782
#   71684
#   83105
#   94465
#   105955
#   116295
#   128429
#   140261
#   152195
#   162354
#   173211
#   183987
#   197013
#   208491
#   220752
#
# Disc length: 3104 seconds
#
# Revision: 0
# Processed by: cddbd v1.5.2PL0 Copyright (c) Steve Scherf et al.
# Submitted via: uFREEDB ActiveX Control 1.5
#
DISCID=100c1e14
DTITLE=Sticks McGhee - New York Blues
DYEAR=1900
DGENRE=Blues
TTITLE0=Real Good Feeling
TTITLE1=Heatache Blues
TTITLE2=Heart Breaking Woman
TTITLE3=Watchin' My Stuff
TTITLE4=Gonna Hop On Down The Line
TTITLE5=Do Right
TTITLE6=Why'd You Do It
TTITLE7=Door Bell Blues
TTITLE8=I'm Doin' All This Time
TTITLE9=The Wiggle Waggle Woo
TTITLE10=Dealin' From The Bottom
TTITLE11=Whiskey, Women and Loaded Dice
TTITLE12=Little Things We Used To Do
TTITLE13=Blues In My Heart and Tears In My Eyes
TTITLE14=Head Happy With Wine
TTITLE15=Jungle Juice
TTITLE16=Sad Bad Glad
TTITLE17=Six To Eight
TTITLE18=Get Your Mind Out Of The Gutter
TTITLE19=Double Crossin' Liquor
EXTD=
EXTT0=
EXTT1=
EXTT2=
EXTT3=
EXTT4=
EXTT5=
EXTT6=
EXTT7=
EXTT8=
EXTT9=
EXTT10=
EXTT11=
EXTT12=
EXTT13=
EXTT14=
EXTT15=
EXTT16=
EXTT17=
EXTT18=
EXTT19=
PLAYORDER=
